<svg version="1.0" xmlns="http://www.w3.org/2000/svg" viewBox="0 0 1280.000000 960.000000" preserveAspectRatio="xMidYMid meet" class="svg-size">
        <g transform="translate(0.000000,960.000000) scale(0.100000,-0.100000)" stroke="none">
                <path d="M6530 9591 c-75 -24 -132 -75 -171 -151 -29 -58 -34 -172 -49 -1060
-6 -366 -15 -897 -20 -1180 -21 -1122 -31 -1725 -33 -1945 -2 -223 -1 -232 22
-282 49 -109 172 -185 274 -168 89 15 168 80 208 170 26 56 26 59 49 1350 6
347 15 862 20 1145 5 283 15 800 21 1149 6 349 9 666 7 705 -7 111 -64 202
-152 248 -43 22 -136 32 -176 19z" />
                <path d="M435 9377 c-80 -31 -134 -85 -169 -168 -38 -92 -54 -1 389 -2219 285
-1427 423 -2101 439 -2135 26 -58 73 -108 125 -134 174 -88 376 57 374 269 0
31 -183 969 -412 2120 -450 2257 -426 2153 -510 2220 -71 55 -165 74 -236 47z" />
                <path d="M12324 9334 c-60 -22 -116 -74 -145 -135 -38 -78 -853 -4151 -852
-4256 1 -209 202 -350 373 -263 50 25 114 98 133 151 9 24 202 971 428 2104
305 1527 412 2077 411 2127 0 113 -64 218 -160 264 -49 23 -137 27 -188 8z" />
                <path d="M1160 4620 c-273 -25 -511 -135 -718 -334 -117 -113 -202 -229 -277
-381 -92 -187 -129 -311 -154 -515 -15 -113 -15 -2031 -1 -2155 73 -642 524
-1142 1105 -1225 97 -13 10473 -13 10570 0 378 54 704 281 913 635 93 157 170
393 191 587 15 131 15 2041 0 2158 -23 191 -61 321 -140 489 -67 142 -145 255
-250 365 -180 189 -390 306 -646 363 -73 17 -381 18 -5293 19 -2868 1 -5253
-2 -5300 -6z m11539 -2280 l1 -955 -6300 0 -6300 0 1 955 c1 525 5 966 9 980
5 16 8 19 9 8 1 -16 26 -18 321 -20 314 -3 320 -3 321 17 1 11 5 -19 10 -66
12 -121 41 -192 103 -254 92 -92 -47 -85 1595 -84 795 1 1433 4 1416 8 -16 4
213 11 510 15 494 7 544 9 583 26 23 11 42 21 42 23 0 2 -19 1 -42 -4 -60 -11
-1268 -11 -1268 0 0 5 -150 10 -358 10 -196 1 -388 3 -427 6 -38 3 -347 10
-685 15 -338 6 -669 12 -735 15 -66 2 -226 5 -357 5 l-236 1 -26 37 c-28 41
-46 84 -46 110 0 15 14 17 136 14 109 -3 134 -1 128 10 -4 7 10 -6 30 -29 21
-24 64 -56 100 -73 l62 -31 335 3 c377 3 359 0 452 87 28 25 47 40 43 33 -6
-10 28 -13 174 -12 l182 2 37 -35 c20 -20 56 -46 81 -59 45 -23 48 -23 385
-23 337 0 340 0 385 23 25 13 59 37 76 53 l31 30 212 0 212 0 45 -40 c79 -70
99 -72 466 -69 311 3 325 4 364 25 23 12 56 34 73 49 31 25 36 26 147 25 63
-1 121 -4 129 -7 17 -7 35 52 35 116 0 25 4 41 8 35 5 -7 785 -10 2307 -10
2291 0 2300 0 2306 20 3 11 8 -61 11 -161 5 -136 11 -191 24 -225 43 -108 120
-178 221 -199 41 -9 184 -9 567 -1 281 6 527 15 546 19 19 4 -226 9 -545 12
l-580 5 -53 29 c-79 44 -122 110 -136 209 l-7 47 120 0 c86 0 120 3 123 12 3
7 8 -7 12 -32 12 -77 26 -120 47 -141 18 -18 36 -19 468 -19 518 0 489 -5 512
96 l13 56 123 -4 c72 -2 123 -7 124 -13 0 -5 4 -1 9 10 5 11 9 61 10 110 2 88
16 229 19 190 1 -20 7 -20 636 -17 l635 2 1 23 c1 18 3 16 9 -8 4 -16 8 -460
9 -985z m-11341 813 c-10 -2 -28 -2 -40 0 -13 2 -5 4 17 4 22 1 32 -1 23 -4z
m1345 -10 c-7 -2 -21 -2 -30 0 -10 3 -4 5 12 5 17 0 24 -2 18 -5z" />
        </g>
</svg>